<?xml version="1.0" standalone="no"?>
<svg xmlns="http://www.w3.org/2000/svg" xmlns:xlink="http://www.w3.org/1999/xlink" width="459pt" height="227pt" viewBox="0.00 0.00 458.78 227.20">
<g id="graph0" class="graph" transform="translate(4,223.1999969482422) scale(1)" data-name="Payment.pause control flow graph">

<polygon fill="white" stroke="none" points="-4,4 -4,-223.2 454.78,-223.2 454.78,4 -4,4" style=""/>
<!-- 31989 -->
<g id="node1" class="node" pointer-events="visible" data-name="31989">

<g id="a_node1"><a xlink:href="vscode://file//home/pedro/Desktop/bitbet-sm/smart-contracts/contracts/PaymentsSolDec082022.sol:600:9" xlink:title="pausedTimestamp = block.timestamp\lrequire(amountSeconds &lt;= 7 days)\l" style="">
<polygon fill="none" stroke="black" points="225.53,-219 0.16,-219 0.16,-177.8 225.53,-177.8 225.53,-219" style=""/>
<text text-anchor="start" x="8" y="-202.6" font-family="Times,serif" font-size="14.00" style="">pausedTimestamp = block.timestamp</text>
<text text-anchor="start" x="8" y="-185.8" font-family="Times,serif" font-size="14.00" style="">require(amountSeconds &lt;= 7 days)</text>
</a>
</g>
</g>
<!-- 31990 -->
<g id="node2" class="node" pointer-events="visible" data-name="31990">

<polygon fill="none" stroke="black" points="139.84,-36 85.84,-36 85.84,0 139.84,0 139.84,-36" style=""/>
</g>
<!-- 31989&#45;&gt;31990 -->
<g id="edge2" class="edge" data-name="31989-&gt;31990">

<path fill="none" stroke="black" d="M110.4,-177.41C108.75,-162.85 106.72,-142.63 105.86,-124.8 105.1,-108.82 105.07,-104.78 105.86,-88.8 106.54,-75.25 107.95,-60.28 109.33,-47.68" style=""/>
<polygon fill="black" stroke="black" points="112.78,-48.3 110.44,-37.97 105.82,-47.5 112.78,-48.3" style=""/>
<text text-anchor="middle" x="185.83" y="-102.6" font-family="Times,serif" font-size="14.00" style="">amountSeconds != 0 is false</text>
</g>
<!-- 31991 -->
<g id="node3" class="node" pointer-events="visible" data-name="31991">

<g id="a_node3"><a xlink:href="vscode://file//home/pedro/Desktop/bitbet-sm/smart-contracts/contracts/PaymentsSolDec082022.sol:604:13" xlink:title="pausedFor = amountSeconds\l" style="">
<polygon fill="none" stroke="black" points="450.72,-124.8 272.97,-124.8 272.97,-88.8 450.72,-88.8 450.72,-124.8" style=""/>
<text text-anchor="start" x="280.91" y="-102.6" font-family="Times,serif" font-size="14.00" style="">pausedFor = amountSeconds</text>
</a>
</g>
</g>
<!-- 31989&#45;&gt;31991 -->
<g id="edge1" class="edge" data-name="31989-&gt;31991">

<path fill="none" stroke="black" d="M168.41,-177.4C208.41,-163.01 262.27,-143.63 303,-128.97" style=""/>
<polygon fill="black" stroke="black" points="303.94,-132.36 312.16,-125.68 301.57,-125.77 303.94,-132.36" style=""/>
<text text-anchor="middle" x="335.5" y="-147" font-family="Times,serif" font-size="14.00" style="">amountSeconds != 0 is true</text>
</g>
<!-- 31991&#45;&gt;31990 -->
<g id="edge3" class="edge" data-name="31991-&gt;31990">

<path fill="none" stroke="black" d="M311.75,-88.34C264.3,-71.8 194.07,-47.31 151,-32.3" style=""/>
<polygon fill="black" stroke="black" points="152.16,-29 141.57,-29.01 149.86,-35.61 152.16,-29" style=""/>
<text text-anchor="middle" x="278.28" y="-58.2" font-family="Times,serif" font-size="14.00" style="">always</text>
</g>
</g>
</svg>